<mxfile host="Electron" agent="Mozilla/5.0 (Windows NT 10.0; Win64; x64) AppleWebKit/537.36 (KHTML, like Gecko) draw.io/24.7.8 Chrome/128.0.6613.36 Electron/32.0.1 Safari/537.36" version="24.7.8">
  <diagram id="R2lEEEUBdFMjLlhIrx00" name="Page-1">
    <mxGraphModel dx="864" dy="516" grid="1" gridSize="10" guides="1" tooltips="1" connect="1" arrows="1" fold="1" page="1" pageScale="1" pageWidth="850" pageHeight="1100" math="0" shadow="0" extFonts="Permanent Marker^https://fonts.googleapis.com/css?family=Permanent+Marker">
      <root>
        <mxCell id="0" />
        <mxCell id="1" parent="0" />
        <mxCell id="B4r1i6QDoHa4ZV3vXgjY-7" style="edgeStyle=orthogonalEdgeStyle;rounded=0;orthogonalLoop=1;jettySize=auto;html=1;exitX=1;exitY=0.5;exitDx=0;exitDy=0;" edge="1" parent="1" source="B4r1i6QDoHa4ZV3vXgjY-1" target="B4r1i6QDoHa4ZV3vXgjY-4">
          <mxGeometry relative="1" as="geometry">
            <Array as="points">
              <mxPoint x="160" y="120" />
              <mxPoint x="300" y="120" />
            </Array>
          </mxGeometry>
        </mxCell>
        <mxCell id="B4r1i6QDoHa4ZV3vXgjY-1" value="ESTUDIANTES" style="rounded=0;whiteSpace=wrap;html=1;" vertex="1" parent="1">
          <mxGeometry x="40" y="100" width="120" height="60" as="geometry" />
        </mxCell>
        <mxCell id="B4r1i6QDoHa4ZV3vXgjY-3" value="PRECEPTORES" style="rounded=0;whiteSpace=wrap;html=1;" vertex="1" parent="1">
          <mxGeometry x="40" y="220" width="120" height="60" as="geometry" />
        </mxCell>
        <mxCell id="B4r1i6QDoHa4ZV3vXgjY-4" value="USUARIOS" style="rounded=0;whiteSpace=wrap;html=1;" vertex="1" parent="1">
          <mxGeometry x="240" y="150" width="120" height="60" as="geometry" />
        </mxCell>
        <mxCell id="B4r1i6QDoHa4ZV3vXgjY-11" value="ROLES" style="rounded=0;whiteSpace=wrap;html=1;" vertex="1" parent="1">
          <mxGeometry x="580" y="90" width="120" height="60" as="geometry" />
        </mxCell>
        <mxCell id="B4r1i6QDoHa4ZV3vXgjY-12" value="USUARIOS" style="rounded=0;whiteSpace=wrap;html=1;" vertex="1" parent="1">
          <mxGeometry x="480" y="220" width="120" height="60" as="geometry" />
        </mxCell>
        <mxCell id="B4r1i6QDoHa4ZV3vXgjY-13" value="PERMISOS" style="rounded=0;whiteSpace=wrap;html=1;" vertex="1" parent="1">
          <mxGeometry x="680" y="220" width="120" height="60" as="geometry" />
        </mxCell>
        <mxCell id="B4r1i6QDoHa4ZV3vXgjY-14" value="" style="endArrow=classic;html=1;rounded=0;entryX=0.5;entryY=0;entryDx=0;entryDy=0;exitX=0;exitY=0.5;exitDx=0;exitDy=0;" edge="1" parent="1" source="B4r1i6QDoHa4ZV3vXgjY-11" target="B4r1i6QDoHa4ZV3vXgjY-12">
          <mxGeometry width="50" height="50" relative="1" as="geometry">
            <mxPoint x="370" y="410" as="sourcePoint" />
            <mxPoint x="420" y="360" as="targetPoint" />
            <Array as="points">
              <mxPoint x="540" y="120" />
            </Array>
          </mxGeometry>
        </mxCell>
        <mxCell id="B4r1i6QDoHa4ZV3vXgjY-15" style="edgeStyle=orthogonalEdgeStyle;rounded=0;orthogonalLoop=1;jettySize=auto;html=1;exitX=1;exitY=0.5;exitDx=0;exitDy=0;" edge="1" parent="1" source="B4r1i6QDoHa4ZV3vXgjY-16" target="B4r1i6QDoHa4ZV3vXgjY-19">
          <mxGeometry relative="1" as="geometry">
            <Array as="points">
              <mxPoint x="160" y="120" />
              <mxPoint x="300" y="120" />
            </Array>
          </mxGeometry>
        </mxCell>
        <mxCell id="B4r1i6QDoHa4ZV3vXgjY-16" value="ESTUDIANTES" style="rounded=0;whiteSpace=wrap;html=1;" vertex="1" parent="1">
          <mxGeometry x="40" y="100" width="120" height="60" as="geometry" />
        </mxCell>
        <mxCell id="B4r1i6QDoHa4ZV3vXgjY-17" value="Gestion de Usuarios y Grupos" style="text;html=1;align=center;verticalAlign=middle;whiteSpace=wrap;rounded=0;fontStyle=1;fontSize=22;" vertex="1" parent="1">
          <mxGeometry x="40" y="40" width="320" height="30" as="geometry" />
        </mxCell>
        <mxCell id="B4r1i6QDoHa4ZV3vXgjY-18" value="PRECEPTORES" style="rounded=0;whiteSpace=wrap;html=1;" vertex="1" parent="1">
          <mxGeometry x="40" y="220" width="120" height="60" as="geometry" />
        </mxCell>
        <mxCell id="B4r1i6QDoHa4ZV3vXgjY-19" value="USUARIOS" style="rounded=0;whiteSpace=wrap;html=1;" vertex="1" parent="1">
          <mxGeometry x="240" y="150" width="120" height="60" as="geometry" />
        </mxCell>
        <mxCell id="B4r1i6QDoHa4ZV3vXgjY-20" style="edgeStyle=orthogonalEdgeStyle;rounded=0;orthogonalLoop=1;jettySize=auto;html=1;exitX=1;exitY=0.5;exitDx=0;exitDy=0;entryX=0.417;entryY=1;entryDx=0;entryDy=0;entryPerimeter=0;" edge="1" parent="1" target="B4r1i6QDoHa4ZV3vXgjY-19">
          <mxGeometry relative="1" as="geometry">
            <mxPoint x="159.5" y="230" as="sourcePoint" />
            <mxPoint x="240" y="190" as="targetPoint" />
          </mxGeometry>
        </mxCell>
        <mxCell id="B4r1i6QDoHa4ZV3vXgjY-21" value="ROLES" style="rounded=0;whiteSpace=wrap;html=1;" vertex="1" parent="1">
          <mxGeometry x="580" y="90" width="120" height="60" as="geometry" />
        </mxCell>
        <mxCell id="B4r1i6QDoHa4ZV3vXgjY-22" value="USUARIOS" style="rounded=0;whiteSpace=wrap;html=1;" vertex="1" parent="1">
          <mxGeometry x="480" y="220" width="120" height="60" as="geometry" />
        </mxCell>
        <mxCell id="B4r1i6QDoHa4ZV3vXgjY-23" value="PERMISOS" style="rounded=0;whiteSpace=wrap;html=1;" vertex="1" parent="1">
          <mxGeometry x="680" y="220" width="120" height="60" as="geometry" />
        </mxCell>
        <mxCell id="B4r1i6QDoHa4ZV3vXgjY-24" value="" style="endArrow=classic;html=1;rounded=0;entryX=0.5;entryY=0;entryDx=0;entryDy=0;exitX=0;exitY=0.5;exitDx=0;exitDy=0;" edge="1" parent="1" source="B4r1i6QDoHa4ZV3vXgjY-21" target="B4r1i6QDoHa4ZV3vXgjY-22">
          <mxGeometry width="50" height="50" relative="1" as="geometry">
            <mxPoint x="370" y="410" as="sourcePoint" />
            <mxPoint x="420" y="360" as="targetPoint" />
            <Array as="points">
              <mxPoint x="540" y="120" />
            </Array>
          </mxGeometry>
        </mxCell>
        <mxCell id="B4r1i6QDoHa4ZV3vXgjY-25" value="" style="endArrow=classic;html=1;rounded=0;entryX=0.5;entryY=0;entryDx=0;entryDy=0;" edge="1" parent="1">
          <mxGeometry width="50" height="50" relative="1" as="geometry">
            <mxPoint x="700" y="120" as="sourcePoint" />
            <mxPoint x="750" y="220" as="targetPoint" />
            <Array as="points">
              <mxPoint x="750" y="120" />
            </Array>
          </mxGeometry>
        </mxCell>
        <mxCell id="B4r1i6QDoHa4ZV3vXgjY-27" value="&lt;h1 style=&quot;margin-top: 0px;&quot;&gt;&lt;font style=&quot;font-size: 20px;&quot;&gt;Estudiantes&lt;/font&gt;&lt;/h1&gt;&lt;p&gt;&lt;b&gt;Datos personales del estudiante :&lt;/b&gt; nombre, carrera, telefono, email etc...&lt;/p&gt;" style="text;html=1;whiteSpace=wrap;overflow=hidden;rounded=0;" vertex="1" parent="1">
          <mxGeometry x="40" y="320" width="210" height="120" as="geometry" />
        </mxCell>
        <mxCell id="B4r1i6QDoHa4ZV3vXgjY-28" value="&lt;h1 style=&quot;margin-top: 0px;&quot;&gt;&lt;font style=&quot;font-size: 20px;&quot;&gt;Preceptores&lt;/font&gt;&lt;/h1&gt;&lt;p&gt;&lt;b&gt;Datos personales del preceptor:&lt;/b&gt; nombre, telefono, email etc...&lt;/p&gt;" style="text;html=1;whiteSpace=wrap;overflow=hidden;rounded=0;" vertex="1" parent="1">
          <mxGeometry x="322" y="320" width="198" height="120" as="geometry" />
        </mxCell>
        <mxCell id="B4r1i6QDoHa4ZV3vXgjY-29" value="&lt;h1 style=&quot;margin-top: 0px;&quot;&gt;&lt;span style=&quot;font-size: 20px;&quot;&gt;Usuarios&lt;/span&gt;&lt;/h1&gt;&lt;p&gt;&lt;b&gt;Datos de usuarios del sistema:&lt;/b&gt;&amp;nbsp;usuario, contraseÃ±a, rol etc...&lt;/p&gt;" style="text;html=1;whiteSpace=wrap;overflow=hidden;rounded=0;" vertex="1" parent="1">
          <mxGeometry x="602" y="320" width="218" height="120" as="geometry" />
        </mxCell>
        <mxCell id="B4r1i6QDoHa4ZV3vXgjY-30" value="&lt;h1 style=&quot;margin-top: 0px;&quot;&gt;&lt;span style=&quot;font-size: 20px;&quot;&gt;Roles&lt;/span&gt;&lt;/h1&gt;&lt;p&gt;&lt;b&gt;Funciones de los usuarios dentro del sistema:&lt;/b&gt;&amp;nbsp;estudiante, preceptor, etc...&lt;/p&gt;" style="text;html=1;whiteSpace=wrap;overflow=hidden;rounded=0;" vertex="1" parent="1">
          <mxGeometry x="40" y="432" width="200" height="120" as="geometry" />
        </mxCell>
        <mxCell id="B4r1i6QDoHa4ZV3vXgjY-31" value="&lt;h1 style=&quot;margin-top: 0px;&quot;&gt;&lt;span style=&quot;font-size: 20px;&quot;&gt;Permisos&lt;/span&gt;&lt;/h1&gt;&lt;p&gt;&lt;b&gt;Autorizaciones para utilizar el sistema segun el rol ejercido:&lt;/b&gt;&amp;nbsp;c&lt;span style=&quot;background-color: initial;&quot;&gt;reacion, lectura, modificacion, borrado&lt;/span&gt;&lt;/p&gt;" style="text;html=1;whiteSpace=wrap;overflow=hidden;rounded=0;" vertex="1" parent="1">
          <mxGeometry x="320" y="429" width="230" height="120" as="geometry" />
        </mxCell>
      </root>
    </mxGraphModel>
  </diagram>
</mxfile>
